<svg width="42" height="32" viewBox="0 0 42 32" fill="none" xmlns="http://www.w3.org/2000/svg">
<path d="M3.7141e-07 15.0137C3.7141e-07 16.8702 0.737498 18.6507 2.05025 19.9634C3.36301 21.2762 5.14349 22.0137 7 22.0137H22C23.4311 22.0146 24.8153 21.5039 25.903 20.5739C26.9907 19.6438 27.7101 18.3556 27.9314 16.9418C28.1528 15.5279 27.8615 14.0815 27.1102 12.8635C26.3588 11.6456 25.1969 10.7363 23.834 10.2997C24.0643 9.42918 24.0555 8.51267 23.8085 7.64674C23.5616 6.78082 23.0856 5.99752 22.4309 5.3794C21.7761 4.76127 20.9667 4.3312 20.088 4.13449C19.2093 3.93778 18.2938 3.98173 17.438 4.26169C16.7522 2.64823 15.4859 1.35085 13.8895 0.62611C12.2932 -0.0986261 10.483 -0.197954 8.81688 0.347768C7.15081 0.893491 5.75017 2.04453 4.89193 3.57327C4.03369 5.10201 3.78035 6.89714 4.182 8.60369C2.93791 9.15082 1.88 10.0483 1.13738 11.1865C0.394763 12.3248 -0.000442264 13.6546 3.7141e-07 15.0137Z" fill="#BB3636"/>
<path d="M42.0039 18.0137C42.0039 19.8702 41.2664 21.6507 39.9537 22.9634C38.6409 24.2762 36.8604 25.0137 35.0039 25.0137H20.0039C18.5728 25.0146 17.1886 24.5039 16.1009 23.5739C15.0133 22.6438 14.2938 21.3556 14.0725 19.9418C13.8511 18.5279 14.1424 17.0815 14.8937 15.8635C15.6451 14.6456 16.807 13.7363 18.1699 13.2997C17.9396 12.4292 17.9485 11.5127 18.1954 10.6467C18.4423 9.78082 18.9183 8.99752 19.573 8.3794C20.2278 7.76127 21.0372 7.3312 21.9159 7.13449C22.7946 6.93778 23.7101 6.98173 24.5659 7.26169C25.2517 5.64823 26.518 4.35085 28.1144 3.62611C29.7107 2.90137 31.5209 2.80205 33.187 3.34777C34.8531 3.89349 36.2537 5.04453 37.112 6.57327C37.9702 8.10201 38.2236 9.89714 37.8219 11.6037C39.066 12.1508 40.1239 13.0483 40.8665 14.1865C41.6091 15.3248 42.0043 16.6546 42.0039 18.0137Z" fill="#D53D3D"/>
<path d="M33.0161 18.8041C34.549 19.1535 35.8998 20.0549 36.8106 21.3365C37.7215 22.618 38.1287 24.19 37.9547 25.7527C37.7806 27.3153 37.0374 28.7591 35.8669 29.8089C34.6963 30.8586 33.1803 31.4407 31.6081 31.4441H14.0081C12.0241 31.4461 10.1102 30.7109 8.63792 29.3811C7.16561 28.0514 6.2399 26.222 6.04052 24.2481C5.84114 22.2742 6.3823 20.2967 7.55896 18.6994C8.73561 17.102 10.4638 15.9989 12.4081 15.6041V15.4441C12.407 14.5979 12.6298 13.7665 13.0536 13.0341C13.4775 12.3017 14.0874 11.6944 14.8216 11.2737C15.5558 10.853 16.3882 10.6338 17.2344 10.6385C18.0806 10.6431 18.9105 10.8714 19.6401 11.3001C20.7628 10.1908 22.1897 9.43985 23.7398 9.14259C25.2899 8.84534 26.8933 9.01513 28.3468 9.63045C29.8002 10.2458 31.0382 11.2789 31.9037 12.5988C32.7691 13.9187 33.2231 15.4659 33.2081 17.0441C33.2081 17.6521 33.1441 18.2281 33.0161 18.8041Z" fill="#B52525"/>
<path d="M16.5345 19.6443C16.1847 20.2273 16 20.8944 16 21.5743C16 22.2542 16.1847 22.9213 16.5345 23.5043C16.642 23.6838 16.7859 23.8388 16.9569 23.9594C17.1279 24.0799 17.3223 24.1633 17.5275 24.2043L19.2205 24.5433C19.3214 24.5633 19.4125 24.6173 19.4785 24.6963L21.5465 27.1793C22.7285 28.5993 23.3205 29.3083 23.8475 29.1173C24.3765 28.9263 24.3765 28.0023 24.3765 26.1543V16.9923C24.3765 15.1453 24.3765 14.2223 23.8485 14.0303C23.3215 13.8403 22.7295 14.5493 21.5475 15.9683L19.4765 18.4523C19.4107 18.5311 19.3201 18.5851 19.2195 18.6053L17.5265 18.9443C17.3213 18.9853 17.1269 19.0687 16.9559 19.1893C16.7849 19.3098 16.642 19.4648 16.5345 19.6443Z" stroke="#C5B5B5" stroke-width="2"/>
<path d="M28.9126 25.1104C29.8456 24.1774 30.372 22.9134 30.3771 21.5939C30.3822 20.2744 29.8654 19.0065 28.9396 18.0664" stroke="#C5B5B5" stroke-width="2" stroke-linecap="round"/>
</svg>
